<svg xmlns="http://www.w3.org/2000/svg" width="64" height="64" viewBox="0 0 32 32" fill-rule="evenodd">
  <path d="M28.312 28.26C25.003 30.7 20.208 32 16.08 32c-5.8 0-11.002-2.14-14.945-5.703-.3-.28-.032-.662.34-.444C5.73 28.33 11 29.82 16.426 29.82a29.73 29.73 0 0 0 11.406-2.332c.56-.238 1.03.367.48.773" fill="#f0e68c"/>
  <path d="M18.43 13.864c0 1.692.043 3.103-.812 4.605-.7 1.22-1.8 1.973-3.005 1.973-1.667 0-2.644-1.27-2.644-3.145 0-3.7 3.316-4.373 6.462-4.373v.94m4.38 10.584c-.287.257-.702.275-1.026.104-1.44-1.197-1.704-1.753-2.492-2.895-2.382 2.43-4.074 3.157-7.158 3.157-3.658 0-6.498-2.254-6.498-6.767 0-3.524 1.905-5.924 4.63-7.097 2.357-1.038 5.65-1.22 8.165-1.5V8.9c0-1.032.08-2.254-.53-3.145-.525-.8-1.54-1.13-2.437-1.13-1.655 0-3.127.85-3.487 2.608-.073.4-.36.776-.757.794L7 7.555c-.354-.08-.75-.366-.647-.9C7.328 1.54 11.945 0 16.074 0c2.113 0 4.874.562 6.54 2.162 2.113 1.973 1.912 4.605 1.912 7.47V16.4c0 2.034.843 2.925 1.637 4.025.275.4.336.86-.018 1.154a184.26 184.26 0 0 0-3.328 2.883l-.006-.012" fill="#f8f8f8"/>
  <path d="M-29.65 355.868c-35 25.797-85.73 39.56-129.406 39.56-61.243 0-116.377-22.65-158.088-60.325-3.277-2.963-.34-7 3.592-4.693 45.014 26.2 100.673 41.947 158.166 41.947 38.775 0 81.43-8.022 120.65-24.67 5.925-2.517 10.88 3.88 5.086 8.18" fill="#f0e68c"/>
  <path d="M-55.16 233.75v-13.685c0-2.07 1.573-3.46 3.46-3.46H9.57c1.966 0 3.54 1.416 3.54 3.46v11.72c-.026 1.966-1.678 4.536-4.614 8.6l-31.75 45.33c11.798-.288 24.25 1.468 34.947 7.498 2.412 1.363 3.067 3.356 3.25 5.322v14.603c0 1.992-2.202 4.326-4.5 3.12-18.85-9.884-43.887-10.96-64.73.105-2.124 1.154-4.352-1.154-4.352-3.146v-13.87c0-2.228.026-6.03 2.255-9.412l36.782-52.748h-32c-1.966 0-3.54-1.4-3.54-3.434m-223.495 85.385h-18.64c-1.783-.13-3.198-1.468-3.33-3.172V220.3c0-1.914 1.6-3.434 3.592-3.434h17.382c1.8.08 3.25 1.468 3.382 3.198v12.505h.34c4.536-12.086 13.056-17.723 24.54-17.723 11.666 0 18.955 5.637 24.198 17.723 4.5-12.086 14.76-17.723 25.745-17.723 7.813 0 16.36 3.225 21.576 10.46 5.9 8.05 4.693 19.74 4.693 29.992l-.026 60.377c0 1.914-1.6 3.46-3.592 3.46h-18.614c-1.86-.13-3.356-1.625-3.356-3.46v-50.703c0-4.037.367-14.105-.524-17.932-1.4-6.423-5.558-8.232-10.96-8.232-4.5 0-9.228 3.015-11.142 7.84s-1.73 12.9-1.73 18.326v50.703c0 1.914-1.6 3.46-3.592 3.46h-18.614c-1.888-.13-3.356-1.625-3.356-3.46l-.026-50.703c0-10.67 1.757-26.374-11.483-26.374-13.397 0-12.872 15.3-12.872 26.374v50.703c0 1.914-1.6 3.46-3.592 3.46m344.496-104.3c27.66 0 42.63 23.752 42.63 53.954 0 29.18-16.543 52.33-42.63 52.33-27.16 0-41.947-23.752-41.947-53.35 0-29.782 14.97-52.932 41.947-52.932m.157 19.532c-13.738 0-14.603 18.72-14.603 30.385 0 11.693-.184 36.65 14.445 36.65 14.445 0 15.127-20.135 15.127-32.404 0-8.075-.34-17.723-2.78-25.378-2.097-6.66-6.266-9.255-12.2-9.255m78.338 84.758H125.8c-1.86-.13-3.356-1.625-3.356-3.46l-.026-95.7c.157-1.757 1.704-3.12 3.592-3.12h17.277c1.625.08 2.962 1.18 3.33 2.674v14.63h.34c5.217-13.082 12.532-19.322 25.404-19.322 8.363 0 16.517 3.015 21.76 11.273 4.876 7.655 4.876 20.528 4.876 29.782v60.22c-.2 1.678-1.757 3.015-3.592 3.015h-18.693c-1.704-.13-3.12-1.4-3.303-3.015v-51.338c0-4.075-.84-12.1-5.325-12.1-4.76 0-9.14 4.066-9.5 8.5-.122.73-.063 2.164-.063 2.16v51.338c-.287 1.51-1.786 2.81-3.304 2.81m71.404 3.73h-18.35c-1.94 0-3.5-1.57-3.5-3.48v-22.25c0-2.044 1.586-3.498 3.5-3.498h18.35c1.97 0 3.54 1.454 3.54 3.498v22.25c0 1.91-1.573 3.48-3.54 3.48m100.146 18.576c-.804 0-1.57-.317-2.152-.867-15.68-10.4-29.426-10.79-45.18-12.14-4.145-.252-7.685-3.48-7.685-7.37v-4.388c.85-1.054 2.54-2.02 3.654-3.173 12.424-12.84 20.18-32.16 25.78-50.637 1.775-6.154 7.166-7.7 10.343-2.054 5.44 8.575 6.75 20.212 4.29 31.416-2.458 11.204-8.688 21.85-19.56 26.654-1.448.773-1.802 2.585-1.802 4.127v6.41c0 2.458 1.062 3.785 3.096 3.785 18.65 0 29.52 2.012 41.24 7.112 2.284 1.122 3.1 3.49 2.71 5.496-.393 2.145-2.128 3.92-4.388 3.92m8.55 8.908c-1.13 1.445-3.16 2.658-5.31 2.658-2.068 0-4.134-1.264-5.4-2.978-1.07-1.49-1.3-3.73 1.476-6.163 3.293-2.979 5.935-4.932 11.34-6.732 1.662-.552 2.698-.894 3.544-1.33 4.1-1.964 6.096-3.295 6.096-7.688 0-3.792-2.416-4.653-5.434-4.653-2.163 0-4.236.17-6.237.5-7.035 1.257-12.908 5.074-17.492 7.364-5.98 2.921-9.212 4.048-13.78 7.73-5.02 3.577-7.52 6.706-8.736 11.302-.702 2.564-.027 5.776 1.227 8.432 1.044 2.233 3.063 4.09 5.637 4.823 2.29.612 4.258.242 5.948-1.432 1.69-1.73 2.19-4.134 1.974-5.482" fill="#f8f8f8"/>
</svg>
